<svg xmlns="http://www.w3.org/2000/svg" xmlns:xlink="http://www.w3.org/1999/xlink" width="52" height="60" fill="none" xmlns:v="https://vecta.io/nano"><g clip-path="url(#A)"><g fill="#00a1e0"><path d="M45.503 50.388s4.763 2.847 4.763 9.612h-8.7l-.565-8.07 4.5-1.543zm-39.006 0S1.734 53.235 1.734 60h8.7l.565-8.07-4.5-1.543z"/></g><path d="M8.216 50.978l-1.72-.59S1.734 53.235 1.734 60h2.51c0-5.015 2.617-7.877 3.97-9.022z" fill="#008fc7"/><path d="M32.1 60H19.91l-6.7-3.016v-7l4.716-6.032h16.808l4.08 7.018-1.887 6.84L32.1 60z" fill="#dc5a64"/><g fill="#87543d"><path d="M3.694 33.485c0 4.6 3.48 7.768.865 11.273 0 0 .636 2.282 4.38 3.83s5.157-8.15 5.157-8.15L9.14 32.45l-5.445 1.035zm44.61-.001c0 4.6-3.48 7.768-.865 11.273 0 0-.636 2.282-4.38 3.83s-5.157-8.15-5.157-8.15l4.957-7.988 5.445 1.035z"/></g><path d="M47.882 52.654c-1.2-1.555-2.38-2.266-2.38-2.266l-4.49 1.543.565 8.07h3.31c1.563-2.52 2.563-4.974 2.996-7.346z" fill="#008fc7"/><g fill="#efedee"><path d="M35.32 47.852S37.086 55.598 32.1 60h9.486c9.042-12.47-.33-18.08-.33-18.08l-5.928 5.932zm-18.64 0S14.913 55.598 19.9 60h-9.486c-9.042-12.47.33-18.08.33-18.08l5.928 5.932z"/></g><path d="M12.2 43.37l-1.45-1.45S1.38 47.53 10.423 60h3.14c-6.417-8.85-3.56-14.244-1.36-16.63z" fill="#d4d2d3"/><path d="M34.085 49.147C30.55 50.358 26 55.194 26 55.194s-4.55-4.836-8.086-6.047l1.995-3.493h12.18l1.995 3.493z" fill="#fbc4ac"/><path d="M46.446 17.866h-.002.002L26 15.54 5.554 17.865C4.008 21.282 3.19 25.072 3.19 29.003h45.617c0-3.93-.817-7.72-2.362-11.137z" fill="#87543d"/><g fill="#fbc4ac"><use xlink:href="#B"/><path d="M46.15 34.13c2.454 0 4.443-2.295 4.443-5.126s-1.99-5.126-4.443-5.126-4.443 2.295-4.443 5.126 1.99 5.126 4.443 5.126z"/></g><path d="M26 51c11.128 0 20.148-9.844 20.148-21.987S37.127 7.015 26 7.015 5.852 16.86 5.852 29.003 14.872 51 26 51z" fill="#a36549"/><path d="M11.052 17.865c-1.903 6.682.647 13.317 7.798 13.317h14.3c7.15 0 9.7-6.635 7.798-13.317L26 17l-14.948.866z" fill="#fbc4ac"/><use xlink:href="#C" fill="#3a484a"/><path d="M26 33.453c3.384 4.037 6.746 2.46 8.387 1.23.43-.322.445-1.033.044-1.404-2.327-2.15-2.328-10.457-8.432-6.107-6.104-4.35-6.105 3.958-8.432 6.107-.4.37-.387 1.08.044 1.404 1.642 1.228 5.003 2.806 8.388-1.23z" fill="#87543d"/><path d="M26 31.54c-.933 0-1.8-.45-2.405-1.236-.285-.377-.252-.948.074-1.278s.822-.29 1.107.086c.297.392.742.616 1.223.616s.926-.225 1.223-.616c.285-.377.78-.415 1.107-.086s.36.9.074 1.278c-.595.785-1.47 1.235-2.404 1.235z" fill="#313d40"/><path d="M36.14 28.08c-.433 0-.785-.405-.785-.905V23.67c0-.5.35-.905.785-.905s.785.405.785.905v3.503c0 .5-.35.905-.785.905z" fill="#3a484a"/><path d="M43.63.578a1.69 1.69 0 0 0-2.549 0l-2.815 3.017L35.453.578a1.69 1.69 0 0 0-2.549 0L30.09 3.595 27.274.578a1.69 1.69 0 0 0-2.549 0L21.91 3.595 19.096.578a1.69 1.69 0 0 0-2.549 0l-2.815 3.017L10.917.578a1.69 1.69 0 0 0-2.549 0C6.574 2.502 5.554 6.3 5.554 9.128v4.085L26 15.54l20.446-2.326V9.128c0-2.827-1.02-6.627-2.815-8.55z" fill="#ffce1c"/><path d="M8.693 13.213V9.128c0-2.674.913-6.218 2.53-8.222l-.307-.33a1.69 1.69 0 0 0-2.549 0C6.574 2.502 5.554 6.3 5.554 9.128v4.085L26 15.54l1.57-.178-18.877-2.148z" fill="#ecb000"/><path d="M26 4.913c-.644 0-1.166.602-1.166 1.345V8.75c0 .743.522 1.345 1.166 1.345s1.166-.602 1.166-1.345V6.258c0-.743-.522-1.345-1.166-1.345z" fill="#dc5a64"/><path d="M46.446 13.213H5.554c-1.113 0-2.016 1.04-2.016 2.326s.903 2.326 2.016 2.326h40.892c1.114 0 2.016-1.04 2.016-2.326s-.903-2.326-2.016-2.326z" fill="#ffa74f"/><path d="M6.676 15.54c0-1.285.903-2.326 2.016-2.326h-3.14c-1.113 0-2.016 1.04-2.016 2.326s.903 2.326 2.016 2.326h3.14c-1.113 0-2.016-1.042-2.016-2.326z" fill="#f2973d"/><g fill="#a36549"><path d="M16.616 21.9h-1.5c-.717 0-1.3.67-1.3 1.5s.582 1.5 1.3 1.5h1.5c.717 0 1.3-.67 1.3-1.498s-.582-1.498-1.3-1.498zm18.768 0h1.5c.717 0 1.3.67 1.3 1.5s-.58 1.5-1.3 1.5h-1.5c-.717 0-1.3-.67-1.3-1.498s.58-1.498 1.3-1.498z"/></g></g><defs><clipPath id="A"><path fill="#fff" d="M0 0h52v60H0z"/></clipPath><path id="B" d="M5.85 34.13c2.454 0 4.443-2.295 4.443-5.126s-1.99-5.126-4.443-5.126-4.443 2.295-4.443 5.126 1.99 5.126 4.443 5.126z"/><path id="C" d="M15.86 28.08c-.433 0-.785-.405-.785-.905V23.67c0-.5.35-.905.785-.905s.785.405.785.905v3.503c0 .5-.35.905-.785.905z"/></defs></svg>